<?xml version="1.0" encoding="UTF-8" standalone="no" ?>
<svg
    fill="#000000"
    width="800px"
    height="800px"
    viewBox="-32 0 512 512"
    version="1.1"
    id="svg1"
    xml:space="preserve"
    xmlns="http://www.w3.org/2000/svg"
    xmlns:svg="http://www.w3.org/2000/svg"
><defs id="defs1"><style
            id="style1"
        >.b{fill:none;stroke:#000000;stroke-linecap:round;stroke-linejoin:round;}</style></defs><path
        id="path1"
        d="M 96,0 C 41.6,0 0,41.6 0,96 v 320 c 0,54.4 41.6,96 96,96 h 326.4 c 12.8,0 25.6,-9.6 25.6,-25.6 v -16 c 0,-6.4 -3.2,-12.8 -9.6,-19.2 -3.2,-16 -3.2,-60.8 0,-73.6 6.4,-3.2 9.6,-9.6 9.6,-19.2 V 25.6 C 448,9.6 438.4,0 422.4,0 Z m 136.96125,34.6075 c 85.11686,0 154.19125,69.07689 154.19125,154.19375 0,85.11687 -69.07439,154.19125 -154.19125,154.19125 -85.11687,0 -154.19375,-69.07438 -154.19375,-154.19125 10e-7,-85.11687 69.07688,-154.193753 154.19375,-154.19375 z m 0,7.0075 C 151.6322,41.614998 85.775,107.4722 85.775,188.80125 c 0,81.32905 65.8572,147.18251 147.18625,147.1825 81.32904,1e-5 147.18375,-65.85345 147.18375,-147.1825 C 380.145,107.47221 314.29029,41.615 232.96125,41.615 Z m -20.2125,15.75375 a 3.504385,3.504385 0 0 1 0.45875,0.02625 3.504385,3.504385 0 0 1 2.335,1.31625 3.504385,3.504385 0 0 1 -0.595,4.92 c -7.13504,5.594675 -16.86211,9.320792 -26.28125,12.7325 -9.41915,3.411709 -18.58757,6.527246 -23.9925,9.88875 a 3.504385,3.504385 0 0 1 -4.82625,-1.125 3.504385,3.504385 0 0 1 1.125,-4.82875 c 6.68029,-4.154697 16.00813,-7.157128 25.30625,-10.525 9.29811,-3.367871 18.50907,-7.083703 24.34375,-11.65875 a 3.504385,3.504385 0 0 1 2.12625,-0.74625 z m 56.3,9.55375 a 3.5047354,3.5047354 0 0 1 2.94375,1.405 c 0,0 8.37234,10.885311 11.3225,19.735 a 3.504385,3.504385 0 0 1 -2.2175,4.43125 3.504385,3.504385 0 0 1 -4.43125,-2.215 c -0.41335,-1.23991 -1.17765,-2.739155 -1.93,-4.21875 2.84691,22.02264 12.68805,98.13845 14.2325,110.1525 1.11009,8.63521 -4.74703,15.66767 -12.065,19.07125 -3.65711,1.70093 -7.79348,2.66014 -11.95125,2.6425 1.34254,15.01351 2.2325,29.0991 2.2325,40.045 a 3.504385,3.504385 0 0 1 -3.50375,3.50375 3.504385,3.504385 0 0 1 -3.505,-3.50375 c 0,-10.98659 -0.96283,-25.54277 -2.39375,-41.11 -1.69397,-0.51829 -3.34484,-1.23324 -4.9175,-2.16375 -3.16875,-1.87494 -11.64392,-7.8069 -23.3475,-16.1625 -3.92544,-2.80251 -8.18055,-5.85868 -12.6475,-9.085 1.73339,3.88007 3.01714,8.19621 3.52625,12.9275 0.56933,5.28882 -1.55726,10.04916 -5.025,13.63375 -3.46773,3.58459 -8.17464,6.31236 -13.53125,8.80375 -10.71322,4.98278 -24.2054,8.97359 -35.7675,14.15 -4.79839,2.14826 -9.0193,5.44778 -12.81625,8.93375 -2.64283,12.1253 -0.24537,21.25274 4.98625,27.5675 5.37805,6.49151 14.04342,10.19625 24.47875,10.19625 3.41982,0 8.35962,-1.22054 13.9425,-3.2375 1.45726,-7.25734 4.51788,-15.85322 9.6525,-26.0325 a 3.504385,3.504385 0 0 1 4.7075,-1.55125 3.504385,3.504385 0 0 1 1.55,4.7075 c -3.8297,7.59231 -6.34935,14.09411 -7.88875,19.63125 5.25157,-2.33249 10.68713,-5.12829 15.71375,-8.1 6.69642,-3.9589 12.79313,-8.19725 17.06625,-11.85125 2.13657,-1.827 3.81575,-3.52106 4.84125,-4.8325 0.8172,-1.04505 1.0683,-1.87416 1.14125,-1.94875 6.8e-4,-5.9e-4 0.003,-0.002 0.004,-0.002 l 10e-4,-0.001 0.001,-0.001 h 0.001 0.001 0.001 0.001 l 10e-4,0.001 0.001,0.001 c 0.003,0.005 0.007,0.0162 0.009,0.03 -0.19727,-7.13645 -6.14468,-18.35317 -14.33125,-36.65125 a 3.5047354,3.5047354 0 0 1 1.5375,-4.51125 3.5047354,3.5047354 0 0 1 4.6125,1.19 c 0,0 0.45749,0.78001 2.27625,2.3875 1.81876,1.6075 4.8417,3.80159 9.55,5.88 a 3.504385,3.504385 0 0 1 1.79125,4.62 3.504385,3.504385 0 0 1 -4.62125,1.79125 c -1.14536,-0.5056 -1.91649,-1.03065 -2.91,-1.55 4.95458,10.52339 8.93959,19.30171 9.1075,26.7575 0.059,2.61903 -1.17625,4.43519 -2.655,6.32625 -1.47874,1.89106 -3.44132,3.81666 -5.8075,5.84 -4.73235,4.04668 -11.08187,8.43628 -18.055,12.55875 -6.78787,4.01295 -14.04662,7.80464 -21.02,10.64 -0.67873,5.78022 -0.0355,10.07407 1.22125,13.15625 2.78634,6.83373 8.79762,8.775 12.54875,8.775 1.16554,0 3.47222,-0.92677 6.13875,-3.0075 2.66652,-2.08072 5.65945,-5.13245 8.63875,-8.5425 5.95858,-6.82012 11.84041,-14.99983 16.36875,-20.24875 5.29294,-6.13521 14.83047,-10.24532 25.25,-14.60125 7.41745,-3.10091 15.24617,-6.19118 22.1,-9.43125 -4.69613,-12.26982 -5.21464,-20.93344 -2.95125,-26.94 2.39247,-6.34916 7.9202,-9.195 12.49,-9.195 3.56804,0 5.94888,2.27899 7.94375,4.935 1.99487,2.656 3.56884,6.08867 4.3375,9.94625 1.53732,7.71515 -0.7381,17.55824 -10.5075,23.285 -0.70709,0.41448 -1.51587,0.78916 -2.2525,1.1925 4.93149,8.75393 12.07917,11.51544 18.0875,11.18625 3.41062,-0.18686 6.4261,-1.45886 8.38375,-3.25625 1.95765,-1.79739 2.937,-3.94812 2.67875,-6.71125 C 330.41207,226.09934 316.2025,100.57 316.2025,100.57 a 3.5047354,3.5047354 0 0 1 2.19375,-3.6525 3.5047354,3.5047354 0 0 1 4.1,1.165 c 0,0 8.37234,10.88329 11.3225,19.73375 a 3.504385,3.504385 0 0 1 -2.2175,4.43375 3.504385,3.504385 0 0 1 -4.43375,-2.21625 c -0.4912,-1.4736 -1.34889,-3.23057 -2.2925,-5.0125 2.57851,22.83408 12.83023,113.79098 15.525,142.62375 0.4626,4.94968 -1.58798,9.46805 -4.9175,12.525 -3.32952,3.05695 -7.85635,4.82368 -12.74,5.09125 -8.67037,0.47504 -18.52954,-4.1102 -24.6725,-14.9975 -7.15678,3.3857 -14.99366,6.45363 -22.25375,9.48875 -10.26282,4.29043 -19.29569,8.82587 -22.64875,12.7125 -4.11768,4.77292 -10.12351,13.10013 -16.3975,20.28125 -3.13699,3.59056 -6.34683,6.91288 -9.60625,9.45625 -3.25941,2.54338 -6.60336,4.49125 -10.44875,4.49125 -6.2707,0 -15.09475,-3.46453 -19.03875,-13.1375 -1.47739,-3.62342 -2.24088,-7.96798 -2.01625,-13.1775 -4.67018,1.44361 -9.069,2.29125 -12.93875,2.29125 -12.11398,0 -22.97216,-4.39749 -29.8775,-12.7325 -5.11616,-6.17541 -7.90282,-14.41049 -7.6225,-24.065 -2.88224,2.89207 -5.68099,5.32419 -9.2075,6.42625 -5.72238,1.78819 -11.27342,0.24917 -14.88125,-3.35125 -3.60782,-3.60043 -5.57626,-8.78907 -6.38625,-14.54125 -1.33941,-9.51197 0.49153,-20.88875 6.23125,-30.11 -3.6224,-0.82493 -7.11567,-2.95303 -10.23875,-6.30625 -5.63051,-6.04548 -7.49939,-13.17394 -6.86625,-19.83 0.63313,-6.65607 3.51578,-12.87496 6.9375,-18.27125 1.90247,-3.00034 3.99648,-5.76598 6.0275,-8.19625 -1.20164,-1.25351 -1.78667,-2.85294 -2.07125,-4.3975 -0.69132,-3.75204 0.0566,-8.02528 1.5325,-12.64875 2.45819,-7.70061 7.02333,-16.27868 13.72,-21.36125 -0.39367,-0.42377 -0.74772,-0.87994 -1.10875,-1.5 -1.1148,-1.91467 -0.76131,-4.35507 0.0875,-5.9625 0.8488,-1.60744 2.07285,-2.89172 3.59,-4.21875 3.03431,-2.65408 7.3679,-5.38699 12.73125,-8.31625 10.72669,-5.858522 25.51207,-12.342215 40.76125,-18.21875 15.24917,-5.876534 30.9231,-11.127153 43.385,-14.43375 6.23095,-1.653299 11.64098,-2.824265 15.935,-3.3375 2.14701,-0.256614 4.00674,-0.359572 5.69125,-0.215 1.6845,0.144573 3.39913,0.35606 4.9425,2.02125 2.67991,2.89143 3.28565,6.988578 2.39,10.6675 -0.89565,3.678923 -2.95832,7.310933 -5.69875,11.235 -5.48086,7.848135 -13.86091,16.82876 -22.56125,26.8 a 3.504385,3.504385 0 0 1 -4.945,0.33625 3.504385,3.504385 0 0 1 -0.33625,-4.94375 c 8.78864,-10.07243 17.11302,-19.070693 22.09625,-26.20625 2.49161,-3.567778 4.0999,-6.679527 4.635,-8.8775 0.48368,-1.98675 0.26838,-2.914834 -0.5375,-3.91625 -0.11744,-0.04371 -0.24019,-0.10426 -0.58375,-0.13375 -0.90329,-0.07752 -2.40036,-0.03102 -4.26,0.19125 -3.71928,0.444541 -8.92375,1.54979 -14.96875,3.15375 -12.09,3.20792 -27.61129,8.397254 -42.6625,14.1975 -15.05121,5.800246 -29.67107,12.23037 -39.92375,17.83 -5.12633,2.79981 -9.17666,5.42982 -11.47625,7.44125 -0.98645,0.86284 -1.44783,1.48906 -1.72125,1.9 0.21089,0.23755 0.22599,0.2695 0.79375,0.805 0.48296,0.45553 1.07229,0.98891 1.7575,1.58875 a 3.504385,3.504385 0 0 1 0.115,0.1 c 0.61247,0.53456 1.29813,1.121 2.04875,1.75125 3.30107,2.77172 7.87004,6.41285 13.28125,10.61125 9.79358,7.59853 22.35244,17.03158 35.32625,26.62375 1.3705,-0.63377 2.7635,-1.22421 4.18125,-1.765 8.6098,-3.28416 18.15524,-4.57932 28.46,-2.83375 -5.17591,-7.17889 -8.65316,-16.07451 -11.07875,-24.36875 -4.17535,-14.27758 -5.22625,-27.20875 -5.22625,-27.20875 a 3.5047354,3.5047354 0 0 1 2.25625,-3.56625 v -0.001 a 3.5047354,3.5047354 0 0 1 4.04625,1.18625 c 0,0 8.37234,10.88328 11.3225,19.73375 a 3.504385,3.504385 0 0 1 -2.21625,4.43375 3.504385,3.504385 0 0 1 -4.4325,-2.21625 c -0.21148,-0.63446 -0.67337,-1.44713 -0.98625,-2.15875 0.57281,2.52977 1.17109,5.11398 1.965,7.82875 3.9443,13.48747 10.97865,27.53483 21.205,31.775 l -0.001,0.004 c 0.0632,0.0304 0.1242,0.0494 0.1875,0.08 A 3.5047354,3.5047354 0 0 1 235.614,167.573 c -0.0636,-0.0264 -0.1167,-0.0694 -0.18,-0.0962 l -0.006,0.0125 c -15.42846,-7.47362 -28.24315,-6.91112 -39.945,-2.4475 -0.0429,0.0164 -0.0859,0.0323 -0.12875,0.0488 0.0402,0.0296 0.0798,0.0592 0.12,0.0888 0.55041,0.33871 2.78937,1.75952 5.72125,4.2 11.61175,8.50663 22.96587,16.71946 32.395,23.45125 11.66812,8.33028 20.6869,14.56004 22.84375,15.83625 0.19561,0.11574 0.39472,0.2263 0.59625,0.3325 -4.29254,-43.19725 -11.4575,-90.7525 -11.4575,-90.7525 a 3.5047354,3.5047354 0 0 1 2.1175,-3.7575 3.5047354,3.5047354 0 0 1 4.1575,1.14 c 0,0 8.37233,10.88531 11.3225,19.735 a 3.504385,3.504385 0 0 1 -2.2175,4.4325 3.504385,3.504385 0 0 1 -4.43125,-2.21625 c -0.33517,-1.00545 -0.99334,-2.24291 -1.56375,-3.42 2.56783,18.20921 6.60804,48.44689 9.335,76.6825 3.31282,0.1315 6.72563,-0.55197 9.65625,-1.915 5.41678,-2.51934 8.72448,-6.69981 8.06625,-11.82 -1.76707,-13.74255 -16.308,-126.2394 -16.308,-126.2394 a 3.5047354,3.5047354 0 0 1 3.34125,-3.94625 z m 25.32375,9.705 a 3.5047354,3.5047354 0 0 1 2.77375,1.41125 c 0,0 8.37233,10.885311 11.3225,19.735 A 3.504385,3.504385 0 0 1 306.2525,102.205 3.504385,3.504385 0 0 1 301.82,99.99 c -0.41389,-1.241551 -1.17758,-2.743278 -1.93125,-4.225 2.84618,22.01698 12.68797,98.14408 14.2325,110.15875 a 3.504385,3.504385 0 0 1 -3.03,3.92375 3.504385,3.504385 0 0 1 -3.92125,-3.02875 C 305.40343,193.07685 290.85875,80.58 290.85875,80.58 a 3.5047354,3.5047354 0 0 1 2.165,-3.6975 3.5047354,3.5047354 0 0 1 1.34875,-0.255 z M 341.535,119.27 a 3.5047354,3.5047354 0 0 1 2.77375,1.41 c 0,0 8.37234,10.88405 11.3225,19.73375 a 3.504385,3.504385 0 0 1 -2.2175,4.43375 3.504385,3.504385 0 0 1 -4.43125,-2.21625 c -0.4299,-1.28958 -1.21392,-2.84354 -2.00625,-4.3875 2.75486,21.5762 10.25677,80.70499 11.77125,100.39625 a 3.504385,3.504385 0 0 1 -3.22625,3.7625 3.504385,3.504385 0 0 1 -3.76125,-3.225 C 350.02905,216.67174 338.02125,123.22125 338.02125,123.22125 a 3.5047354,3.5047354 0 0 1 2.16375,-3.69625 3.5047354,3.5047354 0 0 1 1.35,-0.255 z m -206.15625,8.86125 c -5.13369,3.554 -10.155,11.60566 -12.4025,18.64625 -1.2608,3.94975 -1.61725,7.6139 -1.31625,9.2475 0.0184,0.0998 0.0376,0.18956 0.0575,0.26875 3.04803,-3.12508 5.24875,-4.96 5.24875,-4.96 a 3.504385,3.504385 0 0 1 4.9375,0.43125 3.504385,3.504385 0 0 1 -0.43125,4.9375 c 0,0 -8.63376,7.30412 -14.74375,16.94 -3.055,4.81794 -5.40058,10.15431 -5.87875,15.18125 -0.47817,5.02693 0.65806,9.70802 5.0175,14.38875 3.05176,3.27664 5.60006,4.36435 8.255,4.45875 2.65494,0.0944 5.75814,-0.97363 9.3425,-3.21875 7.16872,-4.49023 15.71352,-13.44598 25.475,-22.54375 6.90516,-6.43565 14.47909,-12.96661 22.9875,-18.0175 -12.03209,-8.91541 -23.5678,-17.59775 -32.7475,-24.72 -5.45146,-4.22961 -10.06779,-7.9057 -13.4925,-10.78125 -0.10401,-0.0873 -0.20697,-0.17292 -0.30875,-0.25875 z m 52.725,40.32375 c -8.79538,4.76894 -16.88851,11.59088 -24.3875,18.58 -9.55057,8.90118 -18.01715,18.02378 -26.5325,23.3575 -2.326,1.45693 -4.69765,2.64959 -7.1275,3.405 -6.98011,7.87475 -9.68452,20.30616 -8.37125,29.6325 0.66387,4.71453 2.35692,8.5186 4.39875,10.55625 2.04184,2.03764 4.12998,2.78185 7.84,1.6225 1.79159,-0.55988 5.9169,-4.39534 10.75,-9.18875 0.72481,-0.71886 1.67397,-1.48145 2.45125,-2.22625 a 3.504385,3.504385 0 0 1 1.3825,-1.25625 c 4.12877,-3.83187 8.76574,-7.7139 14.70125,-10.37125 12.17379,-5.45028 25.73148,-9.48213 35.67625,-14.1075 4.97238,-2.31268 8.9957,-4.78429 11.44875,-7.32 2.45305,-2.53571 3.43768,-4.81631 3.09375,-8.01125 -1.49657,-13.9078 -11.55583,-24.05162 -17.445,-28.87875 -2.40872,-1.76595 -4.82671,-3.54354 -7.23875,-5.32125 -0.21354,-0.15738 -0.42656,-0.31512 -0.64,-0.4725 z m 116.61,56.27625 c -1.9117,0.0102 -4.46435,0.85834 -5.895,4.655 -1.32939,3.52793 -1.32796,10.37569 2.68375,21.23125 0.47172,-0.26271 1.02351,-0.51461 1.47625,-0.78 7.32707,-4.29508 8.29299,-10.27058 7.1775,-15.86875 -0.55775,-2.79909 -1.7818,-5.39487 -3.06625,-7.105 -1.13392,-1.50972 -2.34361,-2.01795 -2.3875,-2.11625 v -0.001 -0.001 l -10e-4,-0.001 v -10e-4 -0.001 l 10e-4,-0.001 v -0.001 l 0.001,-0.001 v -0.001 h 10e-4 c 0.002,-10e-4 0.005,-0.003 0.007,-0.004 z M 96,384 h 284.8 v 64 H 96 c -19.2,0 -32,-12.8 -32,-32 0,-19.2 16,-32 32,-32 z"
    /></svg>
